<svg width="20" height="20" viewBox="0 0 20 20" fill="none" xmlns="http://www.w3.org/2000/svg">
<circle cx="10" cy="10" r="10" fill="#292D32"/>
<path d="M10.3281 14.1094C11.8516 14.1094 12.9687 12.9844 12.9687 11.4531C12.9687 9.90234 11.8906 8.76562 10.4219 8.76562C9.88281 8.76562 9.35938 8.95703 9.03125 9.21875H8.98438L9.26563 6.85937H12.6094V6H8.45313L7.96875 9.9375L8.875 10.0469C9.20703 9.80859 9.77344 9.63672 10.2656 9.64062C11.2852 9.64844 12.0313 10.4219 12.0313 11.4687C12.0313 12.4961 11.3125 13.25 10.3281 13.25C9.50781 13.25 8.85547 12.7227 8.78125 12H7.84375C7.90234 13.2188 8.95313 14.1094 10.3281 14.1094Z" fill="white"/>
</svg>
